<svg width="32" height="32" xmlns="http://www.w3.org/2000/svg">

 <g>
  <title>background</title>
  <rect fill="none" id="canvas_background" height="402" width="582" y="-1" x="-1"/>
 </g>
 <g>
  <title>Layer 1</title>
  <path fill="#0fabc6" id="svg_3" d="m16,24c-0.55273,0 -1,-0.447269 -1,-1l0,-14c0,-0.55273 0.44727,-1 1,-1s1,0.44727 1,1l0,14c0,0.552731 -0.447269,1 -1,1z"/>
  <path fill="#0fabc6" id="svg_5" d="m23.065147,17l-14,0c-0.55273,0 -1,-0.447269 -1,-1s0.44727,-1 1,-1l14,0c0.552731,0 1,0.44727 1,1s-0.447269,1 -1,1z"/>
 </g>
</svg>