<?xml version="1.0"?>
<svg xmlns="http://www.w3.org/2000/svg" id="regular" enable-background="new 0 0 24 24" height="512px" viewBox="0 0 24 24" width="512px"><g><path d="m12 23.5c-5.514 0-10-4.486-10-10s4.486-10 10-10 10 4.486 10 10-4.486 10-10 10zm0-18.5c-4.687 0-8.5 3.813-8.5 8.5s3.813 8.5 8.5 8.5 8.5-3.813 8.5-8.5-3.813-8.5-8.5-8.5z" data-original="#000000" class="active-path" data-old_color="#000000" fill="#00BFD6"/><path d="m2.5 16c-1.378 0-2.5-1.121-2.5-2.5s1.122-2.5 2.5-2.5c.218 0 .43.031.63.093.396.121.618.541.497.937-.121.397-.542.62-.937.497-.057-.018-.122-.027-.19-.027-.551 0-1 .448-1 1s.449 1 1 1c.068 0 .133-.009.19-.026.395-.12.815.101.937.497s-.101.815-.497.937c-.2.061-.412.092-.63.092z" data-original="#000000" class="active-path" data-old_color="#000000" fill="#00BFD6"/><path d="m12 8.5c-.672 0-1.333-.156-1.911-.452-.369-.189-.515-.641-.327-1.01.189-.368.641-.514 1.009-.326.369.188.793.288 1.229.288 1.517 0 2.75-1.233 2.75-2.75s-1.233-2.75-2.75-2.75-2.75 1.233-2.75 2.75c0 .188.016.347.05.487.095.403-.154.807-.557.903-.408.092-.807-.155-.903-.557-.061-.255-.09-.527-.09-.833 0-2.344 1.907-4.25 4.25-4.25s4.25 1.906 4.25 4.25-1.907 4.25-4.25 4.25z" data-original="#000000" class="active-path" data-old_color="#000000" fill="#00BFD6"/><path d="m12 20.247c-1.216 0-2.432-.463-3.357-1.389-.293-.293-.293-.768 0-1.061s.768-.293 1.061 0c1.228 1.227 3.366 1.227 4.594 0 .293-.293.768-.293 1.061 0s.293.768 0 1.061c-.927.926-2.143 1.389-3.359 1.389z" data-original="#000000" class="active-path" data-old_color="#000000" fill="#00BFD6"/><path d="m9.25 13.75c-.414 0-.75-.336-.75-.75 0-.275-.224-.5-.5-.5s-.5.225-.5.5c0 .414-.336.75-.75.75s-.75-.336-.75-.75c0-1.103.897-2 2-2s2 .897 2 2c0 .414-.336.75-.75.75z" data-original="#000000" class="active-path" data-old_color="#000000" fill="#00BFD6"/><path d="m17.25 13.75c-.414 0-.75-.336-.75-.75 0-.275-.224-.5-.5-.5s-.5.225-.5.5c0 .414-.336.75-.75.75s-.75-.336-.75-.75c0-1.103.897-2 2-2s2 .897 2 2c0 .414-.336.75-.75.75z" data-original="#000000" class="active-path" data-old_color="#000000" fill="#00BFD6"/><path d="m21.5 16c-.187 0-.382-.023-.58-.069-.404-.094-.655-.497-.561-.9.094-.402.499-.658.9-.561.087.021.168.03.241.03.551 0 1-.448 1-1s-.449-1-1-1c-.073 0-.154.01-.241.03-.402.096-.806-.158-.9-.561s.157-.807.561-.9c1.657-.384 3.08.865 3.08 2.431 0 1.379-1.122 2.5-2.5 2.5z" data-original="#000000" class="active-path" data-old_color="#000000" fill="#00BFD6"/></g> </svg>
