<?xml version="1.0"?>
<svg xmlns="http://www.w3.org/2000/svg" xmlns:xlink="http://www.w3.org/1999/xlink" version="1.1" id="Capa_1" x="0px" y="0px" viewBox="0 0 512 512" style="enable-background:new 0 0 512 512;" xml:space="preserve" width="512px" height="512px"><g><g>
	<g>
		<path d="M490.033,228.819l-24.853-24.852c-8.499-8.5-13.18-19.8-13.18-31.82V105V15c0-8.284-6.716-15-15-15h-90    c-8.284,0-15,6.716-15,15v90v67.147c0,12.02-4.681,23.321-13.18,31.82l-24.854,24.854c-6.072,6.073-11.033,13.191-14.701,20.924    c-0.33,0.596-0.611,1.22-0.859,1.863c-0.164,0.372-0.32,0.746-0.479,1.12C261.422,245.696,243.507,242,225,242    c-36.06,0-69.961,14.042-95.459,39.541c-4.559,4.559-8.745,9.391-12.557,14.452C107.875,264.833,79.063,242,45,242H15    c-8.284,0-15,6.716-15,15v30c0,41.355,33.645,75,75,75h15.829c-0.051,0.463-0.107,0.924-0.153,1.388    C61.015,369.149,37.535,392.433,31.509,422H15c-8.284,0-15,6.716-15,15s6.716,15,15,15h16.509c6.968,34.192,37.271,60,73.491,60    c19.61,0,37.478-7.574,50.855-19.939c21.241,12.606,45.737,19.564,70.473,19.905c0.224,0.01,0.445,0.034,0.672,0.034h240    c24.813,0,45-20.187,45-45V281.853C512,261.82,504.199,242.986,490.033,228.819z M90,332H75c-24.813,0-45-20.187-45-45v-15h15    c24.813,0,45,20.187,45,45V332z M362,30h60v60h-60V30z M392,271.999v63.21c-28.816-16.53-52.051-33.905-70.859-52.983    c-3.593-3.644-7.36-7.05-11.273-10.227H392z M105,482c-24.813,0-45-20.187-45-45s20.187-45,45-45s45,20.187,45,45    S129.813,482,105,482z M173.452,467.589C177.646,458.24,180,447.893,180,437c0-35.923-25.392-66.014-59.167-73.303    c2.891-23.007,13.26-44.282,29.921-60.943C170.586,282.922,196.954,272,225,272c28.33,0,54.886,11.112,74.777,31.288    c22.233,22.553,49.747,42.765,84.113,61.79C407.177,377.969,420,392.857,420,407c0,34.69-78.375,74.016-190.839,74.981    C209.719,482.163,190.362,477.1,173.452,467.589z M482.001,467H482c0,8.271-6.729,15-15,15h-82.135    C426.912,462.673,450,436.146,450,407c0-14.08-5.437-33.274-28-52.229V257c0-8.284-6.716-15-15-15h-83.787l16.82-16.82    c14.166-14.166,21.967-33,21.967-53.033V120h60v52.147c0,20.033,7.801,38.867,21.967,53.034l24.854,24.852    c8.499,8.5,13.18,19.8,13.18,31.82V467z" data-original="#000000" class="active-path" data-old_color="#000000" fill="#00BFD6"/>
	</g>
</g></g> </svg>
