<?xml version="1.0"?>
<svg xmlns="http://www.w3.org/2000/svg" id="Capa_1" enable-background="new 0 0 512 512" height="512px" viewBox="0 0 512 512" width="512px"><g><g><path d="m199.153 512h107.401c44.334 0 79.039-38.35 74.629-82.449l-20.702-209.029c-1.892-18.916-15.143-34.015-32.627-38.869v-61.653h-60v-30h120v-57.247l-155.968-31.843c-2.957-.604-5.996-.91-9.033-.91-24.813 0-45 20.187-45 45s20.187 45 45 45h15v30h-60v61.653c-17.484 4.854-30.736 19.956-32.628 38.883l-20.7 209c-4.404 44.049 30.215 82.464 74.628 82.464zm8.7-467c0-8.271 6.729-15 15-15 1.025 0 2.046.102 3.033.304l131.967 26.943v2.753h-135c-8.271 0-15-6.729-15-15zm90 105v30h-90v-30zm-143.476 282.508 20.7-209c.77-7.701 7.187-13.508 14.925-13.508h125.701c7.739 0 14.155 5.807 14.924 13.493l20.703 209.029c2.632 26.315-17.918 49.478-44.776 49.478h-107.401c-12.876 0-24.726-5.258-33.365-14.805-8.641-9.547-12.693-21.861-11.411-34.687z" data-original="#000000" class="active-path" data-old_color="#000000" fill="#00BFD6"/><path d="m237.853 391h30v-30h30v-30h-30v-30h-30v30h-30v30h30z" data-original="#000000" class="active-path" data-old_color="#000000" fill="#00BFD6"/></g></g> </svg>
