<?xml version="1.0"?>
<svg xmlns="http://www.w3.org/2000/svg" xmlns:xlink="http://www.w3.org/1999/xlink" version="1.1" id="Capa_1" x="0px" y="0px" viewBox="0 0 512 512" style="enable-background:new 0 0 512 512;" xml:space="preserve" width="512px" height="512px" class=""><g><g>
	<g>
		<path d="M509.885,481.456L274.229,73.289l24.677-42.742c4.359-7.55,1.772-17.206-5.778-21.565    c-7.552-4.361-17.207-1.773-21.565,5.778L256,41.715L240.437,14.76c-4.359-7.55-14.015-10.138-21.565-5.778    c-7.55,4.359-10.137,14.015-5.778,21.565l24.677,42.742L2.115,481.456c-2.821,4.884-2.821,10.902,0,15.787    c2.82,4.884,8.031,7.893,13.672,7.893h480.426c5.64,0,10.852-3.009,13.672-7.893C512.705,492.358,512.705,486.34,509.885,481.456z     M43.131,473.562l197.082-341.355v110.165l-102.577,231.19H43.131z M172.178,473.562L256,284.643l83.822,188.919H172.178z     M374.364,473.562l-102.577-231.19V132.207l197.082,341.355H374.364z" data-original="#000000" class="active-path" data-old_color="#000000" fill="#00BFD6"/>
	</g>
</g></g> </svg>
