<svg width="32" height="32" xmlns="http://www.w3.org/2000/svg">

 <g>
  <title>background</title>
  <rect fill="none" id="canvas_background" height="402" width="582" y="-1" x="-1"/>
 </g>
 <g>
  <title>Layer 1</title>
  <path transform="rotate(-180, 15.9375, 16.0234)" id="svg_1" fill-rule="evenodd" fill="#8c8c8c" d="m29.100109,10.494271c-1.25,-0.328003 -4.188999,-0.324005 -8.487999,-0.438004c0.202999,-0.937996 0.25,-1.783997 0.25,-3.285995c0,-3.587998 -2.614,-6.748001 -4.926003,-6.748001c-1.633,0 -2.979,1.334999 -3,2.977005c-0.022,2.013993 -0.645,5.491997 -4,7.255997c-0.246,0.129997 -0.949999,0.476997 -1.052999,0.522003l0.053,0.044998c-0.525,-0.453003 -1.253,-0.800003 -2,-0.800003l-3,0c-1.654,0 -3,1.346001 -3,3l0,16.000001c0,1.653999 1.346,2.999998 3,2.999998l3,0c1.19,0 2.185999,-0.719 2.668,-1.726995c0.012,0.003998 0.033,0.010002 0.047,0.012001c0.066,0.017998 0.144,0.036995 0.239,0.061996c0.018,0.004997 0.026999,0.007004 0.046,0.012001c0.576,0.142998 1.685,0.407997 4.055,0.952995c0.507999,0.116005 3.191999,0.688002 5.972002,0.688002l5.466999,0c1.666,0 2.867001,-0.640997 3.582001,-1.927999c0.01,-0.019997 0.24,-0.469002 0.427999,-1.075996c0.141001,-0.457001 0.193001,-1.104004 0.023001,-1.760002c1.073999,-0.737999 1.42,-1.853996 1.645,-2.580002c0.376999,-1.191002 0.264,-2.085999 0.001999,-2.726997c0.604,-0.57 1.118999,-1.439003 1.336,-2.765999c0.135,-0.821999 -0.01,-1.667999 -0.389,-2.372002c0.566,-0.636002 0.823999,-1.436006 0.854,-2.176003l0.011999,-0.209c0.007,-0.130997 0.013,-0.211998 0.013,-0.5c0,-1.263 -0.875,-2.874001 -2.836,-3.433998zm-22.164001,18.528001c0,0.553001 -0.447,1 -1,1l-3,0c-0.553,0 -1,-0.446999 -1,-1l0,-16.000001c0,-0.553001 0.447,-1 1,-1l3,0c0.553,0 1,0.446999 1,1l0,16.000001zm22.977001,-14.464997c-0.019999,0.493996 -0.226999,1.464997 -1.976999,1.464997c-1.5,0 -2,0 -2,0c-0.277,0 -0.5,0.223999 -0.5,0.5s0.223,0.5 0.5,0.5c0,0 0.438,0 1.938,0s1.697001,1.244003 1.6,1.844002c-0.124001,0.745995 -0.474001,2.155998 -2.163,2.155998c-1.687,0 -2.375,0 -2.375,0c-0.277,0 -0.5,0.223 -0.5,0.5c0,0.275002 0.223,0.5 0.5,0.5c0,0 1.188,0 1.969,0c1.688,0 1.539,1.287003 1.297001,2.055c-0.319,1.008995 -0.514,1.945 -2.641001,1.945c-0.719,0 -1.631001,0 -1.631001,0c-0.277,0 -0.5,0.223 -0.5,0.5c0,0.275002 0.223,0.5 0.5,0.5c0,0 0.693001,0 1.568001,0c1.094,0 1.145,1.035004 1.031,1.405998c-0.125,0.405998 -0.273001,0.707001 -0.279001,0.721001c-0.302,0.544998 -0.789,0.873001 -1.82,0.873001l-5.466999,0c-2.746002,0 -5.470002,-0.623001 -5.540002,-0.639c-4.154,-0.957001 -4.373,-1.030998 -4.634001,-1.105003c0,0 -0.845999,-0.142998 -0.845999,-0.880997l-0.007,-13.811997c0,-0.469002 0.298999,-0.893005 0.793999,-1.042007c0.062,-0.023994 0.146,-0.049995 0.206,-0.074997c4.568,-1.891998 5.959,-6.040001 6,-9.445999c0.006,-0.479004 0.375,-1 1,-1c1.057001,0 2.926003,2.122002 2.926003,4.748001c0,2.371002 -0.096001,2.780998 -0.926001,5.251999c10,0 9.93,0.143997 10.812,0.375c1.094,0.313004 1.188,1.219002 1.188,1.530998c0,0.343002 -0.01,0.293007 -0.023001,0.629005z" clip-rule="evenodd"/>
 </g>
</svg>