<svg width="32" height="32" xmlns="http://www.w3.org/2000/svg">

 <g>
  <title>background</title>
  <rect fill="none" id="canvas_background" height="402" width="582" y="-1" x="-1"/>
 </g>
 <g>
  <title>Layer 1</title>
  <path id="svg_1" fill-rule="evenodd" fill="#8c8c8c" d="m29.164,10.472c-1.25,-0.328 -4.188999,-0.324 -8.487999,-0.438c0.202999,-0.938001 0.25,-1.784 0.25,-3.286c0,-3.588 -2.614,-6.748 -4.926001,-6.748c-1.633,0 -2.979,1.335 -3,2.977c-0.022,2.014 -0.645,5.492 -4,7.256c-0.246,0.13 -0.95,0.477 -1.053,0.522l0.053,0.045c-0.525,-0.453 -1.253,-0.8 -2,-0.8l-3,0c-1.654,0 -3,1.346 -3,3l0,16c0,1.653999 1.346,3 3,3l3,0c1.19,0 2.186,-0.719 2.668,-1.726999c0.012,0.004 0.033,0.01 0.047,0.011999c0.066,0.018 0.144,0.037001 0.239,0.062c0.018,0.004999 0.026999,0.007 0.046,0.011999c0.576,0.143002 1.685,0.408001 4.055,0.953001c0.507999,0.115999 3.191999,0.688 5.972,0.688l5.466999,0c1.666,0 2.867001,-0.641001 3.582001,-1.927999c0.01,-0.02 0.24,-0.469 0.427999,-1.076c0.141001,-0.457001 0.193001,-1.104 0.023001,-1.76c1.073999,-0.738001 1.42,-1.854 1.645,-2.58c0.376999,-1.191 0.264,-2.086 0.001999,-2.726999c0.604,-0.570002 1.118999,-1.439001 1.336,-2.766001c0.135,-0.822001 -0.01,-1.667999 -0.389,-2.372c0.566,-0.636 0.823999,-1.436001 0.854,-2.176001l0.011999,-0.209c0.007,-0.131001 0.013,-0.212 0.013,-0.5c0,-1.263 -0.875,-2.874001 -2.836,-3.434zm-22.164,18.528c0,0.552999 -0.447,1 -1,1l-3,0c-0.553,0 -1,-0.447001 -1,-1l0,-16c0,-0.553 0.447,-1 1,-1l3,0c0.553,0 1,0.447 1,1l0,16zm22.976999,-14.465c-0.019999,0.494 -0.226999,1.465 -1.976999,1.465c-1.5,0 -2,0 -2,0c-0.277,0 -0.5,0.224001 -0.5,0.5s0.223,0.5 0.5,0.5c0,0 0.438,0 1.938,0s1.697001,1.243999 1.6,1.844c-0.124001,0.746 -0.474001,2.156 -2.163,2.156c-1.687,0 -2.375,0 -2.375,0c-0.277,0 -0.5,0.223 -0.5,0.5c0,0.275 0.223,0.5 0.5,0.5c0,0 1.188,0 1.969,0c1.688,0 1.539,1.287001 1.297001,2.055c-0.319,1.008999 -0.514,1.945 -2.641001,1.945c-0.719,0 -1.631001,0 -1.631001,0c-0.277,0 -0.5,0.223 -0.5,0.5c0,0.275 0.223,0.5 0.5,0.5c0,0 0.693001,0 1.568001,0c1.094,0 1.145,1.035 1.031,1.406c-0.125,0.406 -0.273001,0.707001 -0.279001,0.721001c-0.302,0.545 -0.789,0.872999 -1.82,0.872999l-5.466999,0c-2.746,0 -5.47,-0.622999 -5.54,-0.639c-4.154,-0.957001 -4.373,-1.031 -4.634001,-1.105c0,0 -0.846,-0.143 -0.846,-0.881001l-0.007,-13.812c0,-0.469 0.299,-0.893 0.794,-1.042c0.062,-0.024 0.146,-0.05 0.206,-0.075c4.568,-1.892 5.959,-6.04 6,-9.446c0.006,-0.479 0.375,-1 1,-1c1.056999,0 2.926001,2.122 2.926001,4.748c0,2.371 -0.096001,2.781 -0.926001,5.252c10,0 9.93,0.144 10.812,0.375c1.094,0.313 1.188,1.219 1.188,1.531c0,0.342999 -0.01,0.293 -0.023001,0.629z" clip-rule="evenodd"/>
 </g>
</svg>