<?xml version="1.0" encoding="UTF-8"?>
<svg xmlns="http://www.w3.org/2000/svg" xmlns:xlink="http://www.w3.org/1999/xlink" width="26pt" height="26pt" viewBox="0 0 26 26" version="1.1">
<g id="surface1757249">
<path style=" stroke:none;fill-rule:nonzero;fill:rgb(5.882353%,67.058824%,77.647059%);fill-opacity:1;" d="M 4 1 C 1.804688 1 0 2.800781 0 5 L 0 15 C 0 17.195312 1.804688 19 4 19 L 6.3125 19 L 8.0625 23.375 C 8.207031 23.765625 8.582031 24.027344 9 24.027344 C 9.417969 24.027344 9.792969 23.765625 9.9375 23.375 L 11.6875 19 L 22 19 C 24.195312 19 26 17.195312 26 15 L 26 5 C 26 2.800781 24.195312 1 22 1 Z M 4 3 L 22 3 C 23.117188 3 24 3.882812 24 5 L 24 15 C 24 16.113281 23.113281 17 22 17 L 11 17 C 10.589844 16.996094 10.214844 17.242188 10.0625 17.625 L 9 20.28125 L 7.9375 17.625 C 7.785156 17.242188 7.410156 16.996094 7 17 L 4 17 C 2.886719 17 2 16.113281 2 15 L 2 5 C 2 3.882812 2.882812 3 4 3 Z M 4 3 "/>
</g>
</svg>
