<svg width="64" height="64" xmlns="http://www.w3.org/2000/svg">
 <title/>

 <g>
  <title>background</title>
  <rect fill="none" id="canvas_background" height="402" width="582" y="-1" x="-1"/>
 </g>
 <g>
  <title>Layer 1</title>
  <path fill="#424750" id="svg_1" d="m54,11l-44,0a6.0066,6.0066 0 0 0 -6,6l0,30a6.0066,6.0066 0 0 0 6,6l44,0a6.0066,6.0066 0 0 0 6,-6l0,-30a6.0066,6.0066 0 0 0 -6,-6zm-44,4l44,0a2.002,2.002 0 0 1 2,2l0,0.004801l-24,13.692499l-24,-13.692499l0,-0.004801a2.002,2.002 0 0 1 2,-2zm44,34l-44,0a2.002,2.002 0 0 1 -2,-2l0,-25.389999l23.008801,13.1273a2.0013,2.0013 0 0 0 1.982399,0l23.008801,-13.1273l0,25.389999a2.002,2.002 0 0 1 -2,2z"/>
 </g>
</svg>