<?xml version="1.0" encoding="UTF-8"?>
<svg xmlns="http://www.w3.org/2000/svg" xmlns:xlink="http://www.w3.org/1999/xlink" width="24pt" height="24pt" viewBox="0 0 24 24" version="1.1">
<g id="surface1805520">
<path style=" stroke:none;fill-rule:nonzero;fill:rgb(25.882353%,27.843137%,31.372549%);fill-opacity:1;" d="M 7.5 3.5 C 4.472656 3.5 2 5.972656 2 9 C 2 11.046875 3.542969 12.976562 5.425781 14.953125 C 7.308594 16.933594 9.625 18.933594 11.46875 20.78125 C 11.761719 21.074219 12.238281 21.074219 12.53125 20.78125 C 14.375 18.933594 16.691406 16.933594 18.574219 14.953125 C 20.457031 12.976562 22 11.046875 22 9 C 22 5.972656 19.527344 3.5 16.5 3.5 C 14.761719 3.5 13.25 4.433594 12 6.019531 C 10.75 4.433594 9.238281 3.5 7.5 3.5 Z M 7.5 5 C 8.964844 5 10.183594 5.777344 11.367188 7.652344 C 11.503906 7.867188 11.742188 8 12 8 C 12.257812 8 12.496094 7.867188 12.632812 7.652344 C 13.816406 5.777344 15.035156 5 16.5 5 C 18.71875 5 20.5 6.78125 20.5 9 C 20.5 10.203125 19.292969 12.023438 17.488281 13.921875 C 15.839844 15.652344 13.796875 17.457031 12 19.210938 C 10.203125 17.457031 8.160156 15.652344 6.511719 13.921875 C 4.707031 12.023438 3.5 10.203125 3.5 9 C 3.5 6.78125 5.28125 5 7.5 5 Z M 7.5 5 "/>
</g>
</svg>
