<svg width="128" height="128" xmlns="http://www.w3.org/2000/svg" clip-rule="evenodd">

 <g>
  <title>background</title>
  <rect fill="none" id="canvas_background" height="402" width="582" y="-1" x="-1"/>
 </g>
 <g>
  <title>Layer 1</title>
  <rect fill="none" y="0" x="0.881" width="128" id="Mail" height="128"/>
  <path fill="#0fabc6" id="svg_1" fill-rule="nonzero" d="m117.943001,98.008003c-2.481003,2.385994 -5.794998,3.923996 -9.389,3.990997c-29.114998,0.18 -58.232002,0.18 -87.347,0c-7.208001,-0.134003 -13.687001,-6.379997 -13.825001,-13.824997c-0.121,-18.782005 -0.121,-37.566002 0,-56.348003c0.134,-7.211 6.377,-13.686001 13.825001,-13.825001c29.114998,-0.181 58.232002,-0.181 87.347,0c7.234001,0.135 13.686996,6.378 13.824997,13.825001c0.110001,18.783001 0.110001,37.564999 0,56.348003c-0.050995,2.778999 -1.004997,5.442993 -2.584,7.678993c0.065002,0.531006 -0.223999,0.942001 -0.523994,1.343002c-0.335007,0.450005 -0.808006,0.742004 -1.328003,0.812004zm-38.807999,-36.473003l-2.25,2.172001c-6.686005,6.378998 -18.034,6.650002 -25.004002,-0.007l-0.491001,-0.473999l-35.532999,33.006001c1.553999,1.073997 3.41,1.729996 5.399,1.766998c29.083,0.18 58.165997,0.18 87.248997,0c2.211006,-0.041 4.330002,-0.875 6.034004,-2.241997l-35.403999,-34.222004zm-65.894002,-35.18399c-1.129,1.58 -1.822001,3.483 -1.860001,5.525002c-0.12,18.749001 -0.12,37.498997 0,56.247997c0.035001,1.887001 0.648001,3.702003 1.675,5.250999l35.453999,-32.932999l-35.268998,-34.091zm102.872006,-0.517l-34.098999,32.921l35.117004,33.944004c0.763,-1.366005 1.217995,-2.922005 1.249001,-4.574005c0.109001,-18.75 0.109001,-37.499996 0,-56.249998c-0.042,-2.220999 -0.889999,-4.34 -2.267006,-6.041zm-3.073997,-2.591999c-1.363998,-0.76 -2.908997,-1.211 -4.533997,-1.240999c-29.039001,-0.18 -58.079002,-0.001001 -87.118002,-0.001001c-1.879,0.012001 -3.691,0.596001 -5.245001,1.593c12.875,12.456001 25.688,24.976002 38.643002,37.348991c5.215,4.853996 13.956001,5.005997 19.330002,-0.121002l38.923996,-37.578989z"/>
 </g>
</svg>