<svg width="100.4" height="100.4" xmlns="http://www.w3.org/2000/svg">

 <g>
  <title>background</title>
  <rect fill="none" id="canvas_background" height="402" width="582" y="-1" x="-1"/>
 </g>
 <g>
  <title>Layer 1</title>
  <path fill="#0fabc6" id="svg_2" d="m79.099998,10.1l-15.899998,0l0,-6.8c0,-0.8 -0.700001,-1.5 -1.5,-1.5l-23.700001,0c-0.799999,0 -1.5,0.7 -1.5,1.5l0,6.8l-16.799999,0c-3.5,0 -6.300001,2.799999 -6.300001,6.299999l0,75.400003c0,3.5 2.800001,6.299995 6.300001,6.299995l59.499996,0c3.5,0 6.300003,-2.799995 6.300003,-6.299995l0,-75.400003c-0.099998,-3.5 -2.900002,-6.299999 -6.400002,-6.299999zm-41.099998,19.4l23.700001,0c0.799999,0 1.5,-0.700001 1.5,-1.5l0,-6.5l10.499996,0l0,64.699997l-48.599997,0l0,-64.599997l11.4,0l0,6.4c0,0.9 0.700001,1.5 1.5,1.5zm22.200001,-24.7l0,15.2c0,0 0,0 0,0s0,0 0,0l0,6.5l-20.700001,0l0,-6.5c0,0 0,0 0,0s0,0 0,0l0,-8.5c0,0 0,0 0,0s0,0 0,0l0,-6.7l20.700001,0l0,0zm22.200001,86.899997c0,1.800003 -1.5,3.300003 -3.300003,3.300003l-59.399998,0c-1.800001,0 -3.300001,-1.5 -3.300001,-3.300003l0,-75.299997c0,-1.799999 1.5,-3.299999 3.300001,-3.299999l16.799999,0l0,5.5l-12.9,0c-0.800001,0 -1.5,0.699999 -1.5,1.5l0,67.700003c0,0.799995 0.699999,1.5 1.5,1.5l51.599997,0c0.800003,0 1.5,-0.700005 1.5,-1.5l0,-67.700003c0,-0.800001 -0.699997,-1.5 -1.5,-1.5l-11.999996,0l0,-5.5l15.899998,0c1.800003,0 3.300003,1.5 3.300003,3.299999l0,75.299997z"/>
  <path fill="#0fabc6" id="svg_3" d="m28.799999,46.400002c0,0.799999 0.700001,1.5 1.5,1.5l38.500004,0c0.799995,0 1.5,-0.700001 1.5,-1.5s-0.700005,-1.5 -1.5,-1.5l-38.500004,0c-0.799999,0 -1.5,0.699997 -1.5,1.5z"/>
  <path fill="#0fabc6" id="svg_4" d="m68.800003,55.400002l-38.500004,0c-0.799999,0 -1.5,0.699997 -1.5,1.5s0.700001,1.5 1.5,1.5l38.500004,0c0.799995,0 1.5,-0.700001 1.5,-1.5s-0.700005,-1.5 -1.5,-1.5z"/>
  <path fill="#0fabc6" id="svg_5" d="m68.800003,66.400002l-38.500004,0c-0.799999,0 -1.5,0.699997 -1.5,1.5c0,0.799995 0.700001,1.5 1.5,1.5l38.500004,0c0.799995,0 1.5,-0.700005 1.5,-1.5c0,-0.800003 -0.700005,-1.5 -1.5,-1.5z"/>
 </g>
</svg>